HIERARCHY
ROOT root
{
	OFFSET 0.000000 0.000000 0.000000
	CHANNELS 6 Xposition Yposition Zposition Zrotation Yrotation Xrotation
	JOINT lhip
	{
		OFFSET 0.058581 -0.082280 -0.017664
		CHANNELS 3 Zrotation Yrotation Xrotation
		JOINT lknee
		{
			OFFSET 0.043451 -0.386469 0.008037
			CHANNELS 3 Zrotation Yrotation Xrotation
			JOINT lankle
			{
				OFFSET -0.014790 -0.426874 -0.037428
				CHANNELS 3 Zrotation Yrotation Xrotation
				JOINT ltoe
				{
					OFFSET 0.041054 -0.060286 0.122042
					CHANNELS 3 Zrotation Yrotation Xrotation
					End Site
					{
						OFFSET 0.000000 0.000000 0.000000
					}
				}
			}
		}
	}
	JOINT rhip
	{
		OFFSET -0.060310 -0.090513 -0.013543
		CHANNELS 3 Zrotation Yrotation Xrotation
		JOINT rknee
		{
			OFFSET -0.043257 -0.383688 -0.004843
			CHANNELS 3 Zrotation Yrotation Xrotation
			JOINT rankle
			{
				OFFSET 0.019056 -0.420046 -0.034562
				CHANNELS 3 Zrotation Yrotation Xrotation
				JOINT rtoe
				{
					OFFSET -0.034840 -0.062106 0.130323
					CHANNELS 3 Zrotation Yrotation Xrotation
					End Site
					{
						OFFSET 0.000000 0.000000 0.000000
					}
				}
			}
		}
	}
	JOINT lowerback
	{
		OFFSET 0.004439 0.124404 -0.038385
		CHANNELS 3 Zrotation Yrotation Xrotation
		JOINT upperback
		{
			OFFSET 0.004488 0.137956 0.026820
			CHANNELS 3 Zrotation Yrotation Xrotation
			JOINT chest
			{
				OFFSET -0.002265 0.056032 0.002855
				CHANNELS 3 Zrotation Yrotation Xrotation
				JOINT lowerneck
				{
					OFFSET -0.013390 0.211636 -0.033468
					CHANNELS 3 Zrotation Yrotation Xrotation
					JOINT upperneck
					{
						OFFSET 0.010113 0.088937 0.050410
						CHANNELS 3 Zrotation Yrotation Xrotation
						End Site
						{
							OFFSET 0.000000 0.000000 0.000000
						}
					}
				}
				JOINT lclavicle
				{
					OFFSET 0.071702 0.114000 -0.018898
					CHANNELS 3 Zrotation Yrotation Xrotation
					JOINT lshoulder
					{
						OFFSET 0.122921 0.045205 -0.019046
						CHANNELS 3 Zrotation Yrotation Xrotation
						JOINT lelbow
						{
							OFFSET 0.255332 -0.015649 -0.022946
							CHANNELS 3 Zrotation Yrotation Xrotation
							JOINT lwrist
							{
								OFFSET 0.265709 0.012698 -0.007375
								CHANNELS 3 Zrotation Yrotation Xrotation
								End Site
								{
									OFFSET 0.000000 0.000000 0.000000
								}
							}
						}
					}
				}
				JOINT rclavicle
				{
					OFFSET -0.082954 0.112472 -0.023707
					CHANNELS 3 Zrotation Yrotation Xrotation
					JOINT rshoulder
					{
						OFFSET -0.113228 0.046853 -0.008472
						CHANNELS 3 Zrotation Yrotation Xrotation
						JOINT relbow
						{
							OFFSET -0.260127 -0.014369 -0.031269
							CHANNELS 3 Zrotation Yrotation Xrotation
							JOINT rwrist
							{
								OFFSET -0.269108 0.006794 -0.006027
								CHANNELS 3 Zrotation Yrotation Xrotation
								End Site
								{
									OFFSET 0.000000 0.000000 0.000000
								}
							}
						}
					}
				}
			}
		}
	}
}
MOTION
Frames: 14
Frame Time: 0.033333
-0.531664 0.390194 0.885649 -9.152055 -6.022925 99.285607 10.031204 9.381063 -39.282559 -16.434348 10.920057 60.374575 -7.051221 -10.964424 -20.641920 0.000000 -0.000000 0.000000 -17.513164 -4.026386 -49.384140 -2.620862 -4.896957 59.391347 7.520372 -4.853287 -17.545944 0.000000 -0.000000 0.000000 3.481435 -6.055953 46.543710 -1.508121 0.430621 -6.517559 -1.041274 -1.167207 -2.780105 -20.674883 0.022007 -21.892183 -6.162857 0.493246 6.017824 -30.781412 -28.414150 1.609104 -52.917927 -21.220715 32.177624 -23.665791 -48.998314 54.488993 4.300818 -20.221017 6.082646 30.755239 24.269185 9.454594 42.557686 3.753422 9.904758 -1.234407 33.930902 -33.299917 -2.838998 12.504145 -51.928751 
-0.539988 0.383018 0.881820 -6.881020 -6.902825 99.152984 11.323965 10.717613 -39.897843 -14.946043 12.690331 60.482599 -7.235062 -8.338833 -20.053265 0.000000 -0.000000 0.000000 -18.022336 -5.406008 -48.992407 -2.584010 -5.342571 61.761709 6.386300 -6.070581 -19.415475 0.000000 -0.000000 0.000000 3.971161 -6.684806 46.289620 -1.579057 0.098691 -6.122891 -1.468602 -1.116759 -2.748676 -19.761705 -3.592996 -22.688410 -4.907999 -2.640168 6.310118 -31.380448 -28.507336 2.032410 -52.557430 -21.217869 31.659970 -24.171310 -49.126502 54.497575 6.339514 -20.009389 5.949713 30.366040 24.763274 9.289193 42.158332 3.118123 8.790265 -0.172932 34.599092 -32.848316 -2.033244 14.138347 -51.706135 
-0.546954 0.376493 0.878138 -5.403078 -7.645662 99.292726 12.760076 11.426596 -39.716198 -10.874494 15.323576 57.718928 -5.862053 -2.606562 -20.282718 0.000000 -0.000000 0.000000 -18.786954 -5.488383 -49.348461 -2.918667 -5.789605 64.264382 6.532028 -6.998285 -20.989061 0.000000 -0.000000 0.000000 3.377258 -6.954974 46.118226 -1.718252 0.045373 -5.394955 -1.687085 -0.859285 -3.323984 -18.198158 -6.465444 -22.974112 -2.575161 -6.368436 5.655215 -31.633212 -28.430055 2.795969 -51.969026 -21.475534 31.197940 -24.541785 -49.434020 54.732883 8.507642 -19.730987 6.239373 30.173803 25.034731 9.425719 42.084364 2.785398 8.406422 0.694423 35.124838 -31.743183 -2.570074 13.888044 -52.521793 
-0.551525 0.371217 0.874790 -4.047419 -8.347188 99.895342 13.883412 11.263042 -39.619987 -7.679003 16.952113 52.058165 -4.395152 2.071594 -18.260842 0.000000 -0.000000 0.000000 -19.702124 -5.719027 -50.091136 -2.980240 -6.291791 66.161303 6.581913 -7.818677 -22.080823 0.000000 -0.000000 0.000000 2.772105 -6.866746 45.589327 -1.831804 -0.166341 -5.026312 -1.761153 -0.868977 -3.329002 -16.499153 -8.818958 -23.727663 -0.525697 -10.260400 5.043020 -31.302597 -28.205925 3.060858 -51.871902 -21.964582 31.090394 -24.509352 -49.623129 54.575365 9.482285 -19.777270 6.095946 29.996845 25.274224 9.588292 42.077158 2.957188 8.256357 1.229113 35.284761 -31.571898 -2.825708 13.901564 -52.900279 
-0.553783 0.364702 0.872291 -2.658555 -8.749178 100.310393 14.594648 11.064077 -39.377094 -6.470429 16.807833 45.309998 -3.218812 5.106766 -14.967973 0.000000 -0.000000 0.000000 -20.059640 -6.298070 -50.252900 -3.281273 -6.345057 67.288684 6.533708 -8.621199 -22.726533 0.000000 -0.000000 0.000000 2.239894 -6.634402 45.359740 -1.775895 -0.296565 -4.647189 -1.694059 -0.947860 -3.511103 -14.866852 -10.592719 -24.554407 0.883291 -13.129168 4.830540 -31.420225 -28.026543 3.358979 -51.577713 -22.427713 31.413924 -24.663572 -49.502120 55.005804 10.796240 -19.554206 5.147866 30.043298 25.562906 9.500649 42.110743 2.781300 8.399715 1.246852 35.008634 -31.601976 -3.284769 14.017665 -53.441335 
-0.553871 0.357951 0.870377 -1.365697 -8.928452 100.465044 15.326466 10.896003 -39.080766 -6.652162 15.767718 39.306786 -3.806365 6.415707 -11.741095 0.000000 -0.000000 0.000000 -20.472565 -6.408043 -49.889673 -3.688225 -6.819485 68.392334 6.735319 -8.639809 -23.948664 0.000000 -0.000000 0.000000 1.783826 -6.249984 45.556269 -1.759407 -0.459986 -4.496746 -1.579718 -0.915470 -3.897062 -13.612315 -11.367687 -24.717850 2.178451 -15.742909 4.801105 -31.438784 -28.230331 3.641844 -51.765048 -22.478631 31.829320 -24.014798 -49.261886 54.161726 11.943252 -19.465323 5.173421 30.281898 25.830505 9.394795 42.272792 2.436179 8.067502 1.360463 34.387715 -31.740601 -3.973619 13.817519 -53.727320 
-0.550794 0.351339 0.868473 -0.182525 -8.756112 100.649257 16.053231 11.037433 -39.472523 -6.661654 14.956542 35.845872 -4.680448 5.760712 -8.730786 0.000000 -0.000000 0.000000 -20.528995 -6.660637 -49.405441 -4.292890 -7.027707 68.884574 6.545848 -8.827254 -24.210552 0.000000 -0.000000 0.000000 1.562560 -5.947942 45.532260 -1.758125 -0.585588 -4.232549 -1.552822 -0.808940 -3.865238 -12.423867 -12.139829 -24.957919 3.603486 -17.735260 4.393423 -31.576050 -28.297029 3.975360 -51.606884 -22.787335 31.654637 -24.033189 -49.263078 53.860753 10.743301 -19.359417 4.804679 30.443483 25.997296 9.633170 42.292085 2.723180 7.215124 1.524442 33.668732 -31.965806 -3.819640 14.375314 -53.338174 
-0.545328 0.344580 0.867270 1.017028 -8.607446 100.907108 16.416053 11.191816 -40.327779 -6.495247 15.289917 34.242213 -5.137241 5.246829 -6.743840 0.000000 -0.000000 0.000000 -20.647804 -6.830278 -48.813675 -4.890643 -6.979984 69.148819 6.476440 -9.319493 -24.267163 0.000000 -0.000000 0.000000 1.307274 -5.488488 45.721890 -1.731576 -0.825379 -3.944142 -1.468865 -0.874836 -4.241068 -11.238144 -13.227547 -25.129166 5.054721 -19.382745 3.899629 -31.497095 -28.045074 3.957320 -51.985628 -22.732140 31.415873 -24.154512 -49.197283 53.751288 8.883699 -18.775904 4.306131 30.697358 25.992896 9.720019 42.418114 2.749938 6.610962 0.909755 33.774975 -32.473946 -2.909970 16.109154 -51.906538 
-0.536963 0.337804 0.866490 2.104878 -8.309573 101.078540 16.303673 11.549447 -41.320340 -6.025789 16.269510 34.063703 -5.000656 5.300281 -5.838476 0.000000 -0.000000 0.000000 -20.800143 -6.647461 -47.993436 -5.525847 -6.850976 69.148169 6.889093 -9.841105 -24.733741 0.000000 -0.000000 0.000000 1.171107 -5.104631 46.104543 -1.861421 -0.956682 -3.756827 -1.339251 -0.959673 -4.968738 -10.366014 -14.061551 -24.868377 6.022338 -19.717212 3.728633 -32.105368 -28.118230 4.723379 -51.765661 -22.314497 30.916099 -23.794329 -49.142359 53.906859 8.366366 -18.448147 4.288212 30.670242 26.045216 10.361453 43.027542 2.758905 6.336460 1.223774 32.880293 -32.099199 -3.149740 14.529988 -52.495937 
-0.525623 0.331011 0.865590 2.975246 -7.891988 101.594925 15.954345 11.895296 -42.883663 -5.755958 17.177568 35.963228 -4.265056 4.890348 -7.192052 0.000000 -0.000000 0.000000 -20.969109 -6.467906 -47.489770 -6.093308 -6.671812 68.747190 7.569374 -10.259955 -24.723723 0.000000 -0.000000 0.000000 0.841951 -4.573826 46.144135 -1.822547 -1.102847 -4.282679 -1.259777 -0.803099 -4.630529 -9.339848 -14.808127 -25.082882 6.926698 -20.852590 3.109108 -32.133066 -28.020742 4.842511 -52.200273 -22.489579 31.053304 -23.176044 -48.265940 53.078469 9.040588 -18.407015 5.209815 30.728477 26.070382 10.213947 43.164635 2.732170 6.376451 1.122669 32.276638 -32.515175 -3.071223 14.677343 -52.280385 
-0.511462 0.323785 0.864652 4.063537 -7.315927 101.948063 15.839868 11.406542 -44.327814 -5.804042 17.183593 38.312440 -3.650371 4.365402 -9.342138 0.000000 -0.000000 0.000000 -21.113703 -6.208921 -46.533158 -6.957775 -6.599007 68.200297 7.632421 -11.401239 -23.644540 0.000000 -0.000000 0.000000 0.742614 -4.280648 46.375655 -1.807538 -1.219229 -4.734661 -1.360624 -0.617018 -4.337478 -8.124398 -15.516957 -25.722200 8.256907 -22.461607 2.641094 -32.170568 -28.119873 4.902438 -52.477890 -22.629547 31.470640 -22.341676 -47.489972 52.524915 8.530133 -18.647218 4.761618 30.813788 26.081816 9.984363 43.464222 2.773777 6.535934 1.418334 30.825544 -32.415427 -3.630179 13.627033 -52.525851 
-0.494796 0.316186 0.864276 4.791806 -7.003526 102.000115 15.725166 10.368887 -45.261274 -6.233272 16.577973 40.448278 -3.243040 4.465350 -11.340383 0.000000 -0.000000 0.000000 -21.457527 -6.046662 -45.249555 -8.024714 -6.291967 67.283171 8.123124 -11.900373 -23.035736 0.000000 -0.000000 0.000000 0.442249 -3.304013 47.087594 -1.754417 -1.651643 -5.070793 -1.173672 -0.650641 -4.596273 -6.928079 -16.305752 -25.905490 9.153958 -23.773491 2.251445 -32.354275 -28.273182 5.135112 -52.642526 -22.758013 31.383280 -21.967379 -46.288658 52.196530 6.369455 -18.776083 4.377643 30.935668 26.297230 10.033321 43.850987 2.689075 6.287926 0.981008 29.438595 -33.212128 -3.273937 13.869219 -51.900395 
-0.476292 0.307598 0.864612 5.052554 -6.730052 102.120722 15.376048 9.658479 -46.068239 -6.766308 16.219045 42.707093 -2.542240 4.710917 -13.642039 0.000000 -0.000000 0.000000 -21.830829 -6.087598 -43.905067 -8.838216 -5.872212 66.200145 9.010123 -12.275631 -22.754807 0.000000 -0.000000 0.000000 -0.164456 -1.806867 47.910321 -1.795930 -1.991771 -5.948068 -0.707777 -0.770409 -4.571233 -5.606754 -17.569729 -25.874552 10.577674 -24.824173 1.452662 -32.860337 -28.369649 5.463421 -52.674553 -22.742798 31.466377 -21.762052 -45.023378 52.113313 4.825881 -18.851875 4.826186 31.058554 26.453780 9.878940 44.305584 2.485969 6.009405 0.800463 27.653289 -34.017863 -2.534999 14.247756 -50.980457 
-0.455102 0.299981 0.864067 5.334245 -6.035688 102.494266 15.167653 8.890362 -47.356400 -6.779122 16.253951 45.287279 -1.672383 5.028268 -16.070254 0.000000 -0.000000 0.000000 -22.314443 -6.046148 -42.768027 -9.558010 -6.157640 64.751436 9.764541 -12.156082 -21.708404 0.000000 -0.000000 0.000000 -0.597294 -0.772245 47.889027 -1.694971 -2.134849 -6.106292 -0.566695 -0.639463 -4.528375 -4.028033 -18.051581 -26.262111 11.487124 -26.339206 1.268143 -33.303337 -28.513784 5.926348 -52.952133 -22.946585 31.735316 -20.857630 -44.043389 51.134308 4.950983 -19.256988 5.731734 31.325305 26.556590 10.141062 44.461624 2.626394 5.765341 0.392288 26.093712 -34.925649 -2.954308 14.163113 -51.000674 
